<?xml version="1.0" standalone="no"?>
<!DOCTYPE svg PUBLIC "-//W3C//DTD SVG 20010904//EN"
 "http://www.w3.org/TR/2001/REC-SVG-20010904/DTD/svg10.dtd">
<svg version="1.0" xmlns="http://www.w3.org/2000/svg"
 width="120.000000pt" height="120.000000pt" viewBox="0 0 120.000000 120.000000"
 preserveAspectRatio="xMidYMid meet">
<metadata>
Created by potrace 1.14, written by Peter Selinger 2001-2017
</metadata>
<g transform="translate(0.000000,120.000000) scale(0.100000,-0.100000)"
fill="#000000" stroke="none">
<path d="M200 1097 l0 -104 210 0 c224 0 245 -3 275 -50 34 -52 20 -126 -31
-160 -25 -16 -53 -18 -239 -19 l-210 -1 -3 -382 -2 -381 236 1 c205 1 246 3
300 20 96 30 181 100 224 186 68 137 43 303 -65 420 l-42 46 31 60 c28 54 31
69 31 146 -1 70 -5 95 -24 134 -30 61 -96 128 -158 158 -46 23 -58 24 -290 27
l-243 3 0 -104z m479 -565 c21 -13 46 -38 55 -53 50 -85 4 -204 -90 -233 -19
-6 -133 -10 -209 -7 l-30 1 2 157 c1 87 2 159 2 160 1 2 53 2 116 2 105 -2
119 -4 154 -27z"/>
</g>
</svg>
